<svg width="833" height="130" viewBox="0 0 833 130" fill="none" xmlns="http://www.w3.org/2000/svg">
<path d="M0 37.5006L9.91533 36.5822C19.738 35.7403 39.5687 33.9036 59.492 38.2659C79.4153 42.6282 99.4313 53.0365 119.355 49.1334C139.278 45.1538 159.109 26.7861 178.847 19.3625C198.585 12.0155 218.415 15.536 238.153 21.582C257.891 27.5514 277.722 35.9699 297.645 39.0312C317.569 42.0925 337.585 39.7965 357.508 43.2404C377.431 46.6844 397.262 55.8682 417 57.5519C436.738 59.1591 456.569 53.3426 476.492 43.8527C496.415 34.4393 516.431 21.4289 536.355 22.1942C556.278 22.9595 576.109 37.5006 595.847 45.766C615.585 54.108 635.415 56.0978 655.153 58.3172C674.891 60.4601 694.722 62.7561 714.645 53.1896C734.569 43.6231 754.585 22.1942 774.508 11.3267C794.431 0.535713 814.262 0.229605 824.085 0.153073L834 0V129.339H824.085C814.262 129.339 794.431 129.339 774.508 129.339C754.585 129.339 734.569 129.339 714.645 129.339C694.722 129.339 674.891 129.339 655.153 129.339C635.415 129.339 615.585 129.339 595.847 129.339C576.109 129.339 556.278 129.339 536.355 129.339C516.431 129.339 496.415 129.339 476.492 129.339C456.569 129.339 436.738 129.339 417 129.339C397.262 129.339 377.431 129.339 357.508 129.339C337.585 129.339 317.569 129.339 297.645 129.339C277.722 129.339 257.891 129.339 238.153 129.339C218.415 129.339 198.585 129.339 178.847 129.339C159.109 129.339 139.278 129.339 119.355 129.339C99.4313 129.339 79.4153 129.339 59.492 129.339C39.5687 129.339 19.738 129.339 9.91533 129.339H0V37.5006Z" fill="#EEA3C4"/>
</svg>
